<svg width="800" height="800" viewBox="0 0 800 800" fill="none" xmlns="http://www.w3.org/2000/svg">
<g clip-path="url(#clip0_994_2946)">
<rect width="800" height="800" rx="150" fill="#FFD1D1"/>
<path d="M-252 483.001C4.00818 292.506 -175.518 116.039 -76 -34.4994C47.908 -221.932 197.345 -125.439 544.697 -143.406C892.049 -161.373 1048.75 233.244 1027.02 419.094C921.542 426.24 808.898 379.28 576.442 187.356C437.174 465.033 -20.91 477.216 -252 483.001Z" fill="#FF76B8" stroke="#FF76B8" stroke-width="25" stroke-linejoin="round"/>
<path d="M177 441L177 526" stroke="black" stroke-width="100" stroke-linecap="round"/>
<path d="M603 441L603 526" stroke="black" stroke-width="100" stroke-linecap="round"/>
<path d="M429 615H349C349 675.444 367.605 734 389 734C410.395 734 429 666 429 615Z" fill="#FF6D8D"/>
<path d="M349 615V590C335.193 590 324 601.193 324 615H349ZM429 615H454C454 601.193 442.807 590 429 590V615ZM349 615V640H429V615V590H349V615ZM429 615H404C404 637.951 399.739 665.181 393.167 686.149C389.847 696.744 386.361 704.355 383.437 708.768C379.458 714.771 380.809 709 389 709V734V759C407.888 759 419.588 744.729 425.115 736.389C431.697 726.457 436.874 713.881 440.879 701.101C448.959 675.319 454 643.049 454 615H429ZM389 734V709C395.655 709 396.974 713.305 393.832 709.052C391.264 705.575 387.947 699.116 384.717 689.331C378.347 670.032 374 642.977 374 615H349H324C324 647.468 328.955 679.912 337.236 705.002C341.332 717.411 346.678 729.369 353.615 738.761C359.979 747.376 371.647 759 389 759V734Z" fill="#FF6D8D"/>
<circle cx="163.5" cy="433.5" r="17.5" fill="white"/>
<circle cx="592.5" cy="433.5" r="17.5" fill="white"/>
</g>
<defs>
<clipPath id="clip0_994_2946">
<rect width="800" height="800" rx="150" fill="white"/>
</clipPath>
</defs>
</svg>
